<svg xmlns="http://www.w3.org/2000/svg" viewBox="0 0 1132.44 216.9"><defs><style>.cls-1{fill:#616e7d;}.cls-2{fill:#82bfab;}.cls-3{fill:#aad4c8;}.cls-4{fill:#efeded;}</style></defs><title>Fichier 2</title><g id="Calque_2" data-name="Calque 2"><g id="Layer_1" data-name="Layer 1"><path class="cls-1" d="M31.12,187.44l-.76.06L1.92,215.94l-.07.75.73.21,53.86-23.53.32-.34,9.1-25.37-.14-.62L48.49,149.81l-.66-.12-24,10.47-.31.3L0,214.32l.21.72L1,215,29.4,186.54l.06-.76a6.81,6.81,0,1,1,1.66,1.66Z"/><path class="cls-2" d="M91.08,89,128,125.82C172.87,79.53,225.48,10.94,215.72,1.18S137.37,44,91.08,89Z"/><path class="cls-2" d="M60.29,156.61c8.43,8.43,13.45,17.64,40.88-5.34L65.64,115.73C42.65,143.17,51.86,148.18,60.29,156.61Z"/><path class="cls-3" d="M101.17,151.27c3.09-2.59,6.46-5.59,10.15-9L74.68,105.57c-3.46,3.7-6.46,7.08-9,10.16Z"/><path class="cls-1" d="M74.68,105.57l36.64,36.66c3.24-3,6.69-6.35,10.44-10.11,2-2,4.11-4.15,6.2-6.3L91.08,89q-3.22,3.12-6.31,6.19C81,98.89,77.69,102.34,74.68,105.57Z"/><path class="cls-4" d="M265.57,126.5c4.59,3.15,7.47,7.74,7.47,13.14,0,13.05-17.1,26.1-34.47,26.1-9.27,0-16.56-3.69-20.52-10.17,2.34-7.2,8.55-22.68,12.78-31.95,4.59-10.08,8.1-16.74,11.07-20.7-6.57,2-12.42,4.77-14.94,7.2-2.16-1.44-4.86-6.21-5.13-9.09,6.3-4.41,20.88-8,32.13-8,14.31,0,23,6.12,23,16.29C277,116.69,272.59,122.72,265.57,126.5Zm-26,1.89c-5.4,12.15-10.26,24.48-10.53,27.81,1.71,1,4,1.44,7.38,1.44,16.38,0,30.78-9.9,30.78-21a9,9,0,0,0-5.13-8.55A41.76,41.76,0,0,1,246.22,131a20.16,20.16,0,0,1-3.51-.18A11,11,0,0,1,239.56,128.39Zm12.15-27.9a6,6,0,0,1,1,1.62c-2.16,2.88-6.48,11.43-10.8,20.88a41.7,41.7,0,0,1,8.1-.81,36.43,36.43,0,0,1,4.5.36c11.43-2,19-7.47,19-14.22,0-5.67-4.77-8.73-13.32-8.73A50.23,50.23,0,0,0,251.71,100.49Z"/><path class="cls-4" d="M281.77,135.77c.54-2.34,3.15-11.7,8.55-14.4a15.45,15.45,0,0,1,8.37,5.94c-5.49,6.12-7.11,12.51-10.17,20.43-1.26,3.33-2.61,7.2-2.7,9.81,0,2.16,0,3-.54,3-.9,0-6.57-2.34-6.57-7.65C278.71,150.8,279.43,146.57,281.77,135.77Zm14.4-23.58a4.79,4.79,0,0,1-1.08-3,45,45,0,0,1,2.79-11.79c2.79,0,9.09,3.6,10.89,6.3-2.7,2.52-9.27,10.53-10.17,12.51-1.44-.27-2.7-1.44-2.7-2.43A7.39,7.39,0,0,1,296.17,112.19Z"/><path class="cls-4" d="M307,125.33c7.38-20.16,13.86-33.57,20.07-41.13,2.88.54,9.09,4.14,10.08,5.67-9.36,11.07-16.11,23.22-22.05,39.69-5,14-7.74,25.74-7.74,33.3a12.28,12.28,0,0,0,.09,2.61c-1.62-.18-3-.9-3.33-1.71a9.33,9.33,0,0,0-2.43-2.61c-1.08-.72-1.89-4.14-1.89-8C299.77,147.92,302.38,137.93,307,125.33Z"/><path class="cls-4" d="M328.21,125.33c7.38-20.16,13.86-33.57,20.07-41.13,2.88.54,9.09,4.14,10.08,5.67-9.36,11.07-16.11,23.22-22.05,39.69-5,14-7.74,25.74-7.74,33.3a12.28,12.28,0,0,0,.09,2.61c-1.62-.18-3-.9-3.33-1.71a9.33,9.33,0,0,0-2.43-2.61c-1.08-.72-1.89-4.14-1.89-8C321,147.92,323.62,137.93,328.21,125.33Z"/><path class="cls-4" d="M350.17,148.37c0,.72-.09,1.53-.09,2.34,0,3.06.72,7.2,4.14,7.2,6.48,0,12.69-6.48,16.47-10.53a12.26,12.26,0,0,1,1.53,1.53c-5.4,7.11-12.33,12.24-18,13.5-8.28-.9-13.14-6.57-13.14-13.77,0-14.76,13.5-32.13,25.38-32.13,2.7.36,5.31,2.07,7.74,5.13C373.3,136.4,365.47,142.25,350.17,148.37Zm.72-3.42c9.54-4.77,16.65-12.15,17.1-20.34C361.42,125.51,353.77,133.79,350.89,145Z"/><path class="cls-4" d="M383,124.43a13.66,13.66,0,0,1-1.17-5.31c3.15.18,6,.45,8.46.54,3.6-7.11,8.82-14.85,10.8-15.93,2.43,0,8.19,1.89,9.36,3.24a100.47,100.47,0,0,0-8.82,13,69.77,69.77,0,0,0,7.38-.36,3.77,3.77,0,0,1,1,2.52,33.21,33.21,0,0,1-10.71,1.8c-5.94,11.52-9.54,23.22-9.54,30.6,0,2.7,1.08,4.14,3,4.41a19.37,19.37,0,0,0,9.45-3.87,5.9,5.9,0,0,1,.63,1.35c-1.35,2.07-7.83,6.39-9.81,6.57-5.94-.18-12.78-5.31-12.78-9.54,0-5.85,3.33-18,7.92-29.07Z"/><path class="cls-4" d="M457,133.43c-.72-.09-1.08-.54-1.17-1.35s1.44-3.42,1.44-4.86c0-1.71-.9-3-2.16-3-4.77,0-7.38,6.21-7.38,17.73,0,.72,0,.9.09,1.08,2.52-.09,4.41-.18,6.3-.18.09.18.09.27.09.72a2,2,0,0,1-.36,1.17c-5.58,1.26-6,1.44-6,2.79,0,.9.09,1.8.09,3.24,0,10-5.85,16.47-15.48,17.46-3.42-.27-7.56-3.69-8.55-7,0-9.18,8.1-16.92,18.54-17.64,0-6.12-2.79-11.34-2.79-16.38,0-6.39,5.58-13.32,11.88-14.67,2.7.72,9.63,7.74,10.35,10.53C461.59,127.67,458.89,133.43,457,133.43Zm-14.22,14.85c-4.68.63-12.42,8.46-12.42,12.6a3.8,3.8,0,0,0,1.8,3.24C437.92,161.78,442.78,154.49,442.78,148.28Z"/><path class="cls-4" d="M465.1,135.77c.54-2.34,3.15-11.7,8.55-14.4a15.45,15.45,0,0,1,8.37,5.94c-5.49,6.12-7.11,12.51-10.17,20.43-1.26,3.33-2.61,7.2-2.7,9.81,0,2.16,0,3-.54,3-.9,0-6.57-2.34-6.57-7.65C462,150.8,462.76,146.57,465.1,135.77Zm14.4-23.58a4.79,4.79,0,0,1-1.08-3,45,45,0,0,1,2.79-11.79c2.78,0,9.08,3.6,10.89,6.3-2.7,2.52-9.28,10.53-10.17,12.51-1.44-.27-2.7-1.44-2.7-2.43A7.39,7.39,0,0,1,479.5,112.19Z"/><path class="cls-4" d="M509.37,161.06a9.27,9.27,0,0,1-5.49-6.3c1.26-7.47,4-15.84,11.34-26.37-3.69.18-13,11-19.7,20.43-4.41,6.21-7.47,11.52-8.74,12.33-3.14-2.25-3.95-4.86-4.58-8.1A50.22,50.22,0,0,1,484.53,141c2.71-8.73,7.66-17.82,11.71-24.93,3.33.72,5.84,2.16,8.81,5.13-2.34,7.38-11.43,16.83-12.77,26.73,6.83-9.63,19.07-27,26.81-27,3,0,7,2.34,7.29,3.06-1.17,4.77-10.26,18.09-11.07,23.13,11.7-16,20.61-26.64,27.45-26.64a5.66,5.66,0,0,1,5.58,3.69c-2.16,7.11-11.16,21.42-11.25,30,0,2.52.72,3.06,2.07,3.06s2.79-.81,3.42-.81a2.06,2.06,0,0,1,.72,1.89c-2.43,1.89-4.86,3.33-7.92,3.33-5.67,0-7.47-4.14-7.47-9.09,0-8.19,5-16.29,7.29-21.24C529.44,131.72,515.13,154,509.37,161.06Z"/><path class="cls-4" d="M544,186a24.44,24.44,0,0,1-.63-6.48c0-5.13,3.5-18.09,8.72-31.32,6.58-16.56,9.18-23.85,10.44-27.81.9-2.79,4.32-8.91,6.48-10.8,4.14.63,8.55,2.43,9.36,3.87-3.42,3.15-9,14.13-10.71,20.43,1.17-2,2.79-4.14,6.75-8.28,4.41-4.59,8.46-7.11,11.34-7.11,4.59,0,7.83,2.79,7.83,6.75a40.32,40.32,0,0,1-8.37,24.3c-4.14,5.31-11.61,10-16.2,10-2.16,0-4-1-4.5-2.34,9.27-5.49,18.27-20.61,21.15-36a33.89,33.89,0,0,0-11.61,9.45c-8.55,10.62-9.45,11.7-11.88,17.37-3.42,7.65-9,26.19-13.22,43.83-.63-.09-1.17-.45-1.71-1.44-1-1.08-1.26-1.44-1.8-1.71C544.75,188.51,544.11,187.43,544,186Z"/><path class="cls-4" d="M604,125.33c7.38-20.16,13.86-33.57,20.07-41.13,2.88.54,9.09,4.14,10.08,5.67-9.36,11.07-16.11,23.22-22.05,39.69-5,14-7.74,25.74-7.74,33.3a12.28,12.28,0,0,0,.09,2.61c-1.62-.18-3-.9-3.33-1.71a9.33,9.33,0,0,0-2.43-2.61c-1.08-.72-1.89-4.14-1.89-8C596.76,147.92,599.37,137.93,604,125.33Z"/><path class="cls-4" d="M625.92,148.37c0,.72-.09,1.53-.09,2.34,0,3.06.72,7.2,4.14,7.2,6.48,0,12.69-6.48,16.47-10.53a12.26,12.26,0,0,1,1.53,1.53c-5.4,7.11-12.33,12.24-18,13.5-8.28-.9-13.14-6.57-13.14-13.77,0-14.76,13.5-32.13,25.38-32.13,2.7.36,5.31,2.07,7.74,5.13C649.05,136.4,641.22,142.25,625.92,148.37Zm.72-3.42c9.54-4.77,16.65-12.15,17.1-20.34C637.17,125.51,629.52,133.79,626.64,145Z"/><path class="cls-4" d="M667.5,186a24.87,24.87,0,0,1-.63-6.48c0-5.13,3.51-18.09,8.73-31.32,6.57-16.56,9.18-23.85,10.44-27.81.9-2.79,4.32-8.91,6.48-10.8,4.14.63,8.55,2.43,9.36,3.87-3.42,3.15-9,14.13-10.71,20.43,1.17-2,2.79-4.14,6.75-8.28,4.41-4.59,8.46-7.11,11.34-7.11,4.59,0,7.83,2.79,7.83,6.75a40.32,40.32,0,0,1-8.37,24.3c-4.14,5.31-11.61,10-16.2,10-2.16,0-4-1-4.5-2.34,9.27-5.49,18.27-20.61,21.15-36a33.89,33.89,0,0,0-11.61,9.45c-8.55,10.62-9.45,11.7-11.88,17.37-3.42,7.65-9,26.19-13.23,43.83-.63-.09-1.17-.45-1.71-1.44-1-1.08-1.26-1.44-1.8-1.71C668.22,188.51,667.59,187.43,667.5,186Z"/><path class="cls-4" d="M719.7,147.47c0-9.63,6.21-21.24,14.67-27.45,3.24-2.43,6.48-3.69,9.27-3.69,1.89,1,3.87,3.24,5.67,6.39.54,0,1.08-.09,1.62-.09,3.24,0,4.77,2.7,4.77,8.46a31.48,31.48,0,0,1-24.75,31C724.11,161.33,719.7,155.57,719.7,147.47Zm8.55,4.5c0,2.88,1.17,6,2.34,6.39,10.71-2.34,18.54-13.86,18.54-27.9,0-3.06-.36-4.77-1.17-6-5.22,1.53-9.45,5.4-12.42,9.27C731.4,139.19,728.25,147.2,728.25,152Z"/><path class="cls-4" d="M781.62,149.63a10.37,10.37,0,0,1,.45-3.24c-1-.09-7.47,9.18-9.45,11.52-1.53,1.62-3.06,2.7-3.87,2.79-3.78-.18-8.82-2.79-9.81-7a32,32,0,0,1,.72-7.65c2.16-9.09,8.55-24.3,16.11-29.79,2.07,0,6.21.72,8,2.79-1.08,1.17-6,8-11.43,20.79-1.17,2.7-3.78,10.89-3.78,14a2.28,2.28,0,0,0,.63,1.62c1.8-.72,4.23-3.69,9.18-10.44,2.43-3.33,6.84-8.82,8.82-14.13,1.08-3,3-8.19,7-12.06,3.15,0,7.47,1.53,8.55,2.88-4.41,10.53-11.34,20.61-11.34,30.06,0,5.13,2,7.11,2,8.28,0,.27-.36.36-.36.36-1.62,0-5.76-1.62-8.55-3.51C782.25,155,781.62,151.7,781.62,149.63Z"/><path class="cls-4" d="M813.12,122.72c1.53-3.69,2.61-5.58,4-7,3.33.54,7.56,2.61,9,4.32-3.24,3.78-5.49,8.37-8,16,6.39-5.76,11.25-10.62,15.57-17.1a2.66,2.66,0,0,1,1.89-.45c1.71,0,3.51.63,4,1.53a24,24,0,0,0-1.62,8.55,11.76,11.76,0,0,0,1.17,5.94c-.09.72-1.89,3.15-3.69,5a14.7,14.7,0,0,1-7.11-8.28C817.08,139,813.21,145.4,809.7,162c-2.16-.18-6.57-3.06-7.38-4.86C803.49,150.08,808.8,133,813.12,122.72Z"/><path class="cls-4" d="M869.28,125.33c7.38-20.16,13.86-33.57,20.07-41.13,2.88.54,9.09,4.14,10.08,5.67-9.36,11.07-16.11,23.22-22,39.69-5,14-7.74,25.74-7.74,33.3a12.28,12.28,0,0,0,.09,2.61c-1.62-.18-3-.9-3.33-1.71a9.33,9.33,0,0,0-2.43-2.61c-1.08-.72-1.89-4.14-1.89-8C862.08,147.92,864.69,137.93,869.28,125.33Z"/><path class="cls-4" d="M897.72,108.14A29.86,29.86,0,0,0,902,91.94a63.87,63.87,0,0,0-.54-7.92c6.12.36,12.06,3.42,12.78,6.39-2.25,9.9-7.2,17-15,21.15A5.41,5.41,0,0,1,897.72,108.14Z"/><path class="cls-4" d="M897.45,160.07c0-3.87,4.5-14.22,12-27.36-3.06-.09-5.67-.18-7.2-.18.72-1.8,4.23-3.06,9.72-4.05,9.45-15.66,21.6-28.8,31.41-34.11.09-.81.18-1.44.18-1.71,3.33,0,12.42,4,12.87,5.58-4,6.93-8.1,21.33-10.62,40.5a142.13,142.13,0,0,0-1.08,18.45c0,2.61,0,5.4.18,8.37a2.82,2.82,0,0,1-1.08.09c-3.33,0-9.63-2.43-10.26-4-.09-1.53-.09-3.06-.09-4.68a150.72,150.72,0,0,1,1.8-23.22c-3.33-.27-11.61-.63-19.17-.9A106.07,106.07,0,0,0,908.79,149a67.87,67.87,0,0,0-3.69,16.74C899.34,164,897.45,162.59,897.45,160.07Zm44.19-56.52c-6,2.25-14.94,12-22.41,24,5-.45,10.8-.72,17.19-.81.9-5,2.07-10,3.42-15.12C940.29,109.94,941,106.79,941.64,103.55Z"/><path class="cls-4" d="M963.15,125.33c7.38-20.16,13.86-33.57,20.07-41.13,2.88.54,9.09,4.14,10.08,5.67-9.36,11.07-16.11,23.22-22,39.69-5,14-7.74,25.74-7.74,33.3a12.28,12.28,0,0,0,.09,2.61c-1.62-.18-3-.9-3.33-1.71a9.33,9.33,0,0,0-2.43-2.61c-1.08-.72-1.89-4.14-1.89-8C956,147.92,958.56,137.93,963.15,125.33Z"/><path class="cls-4" d="M1014.63,125.69c-4.86,10.08-8.19,20.7-8.19,26.82,0,3.33.72,5.67,2.34,6.57a12.93,12.93,0,0,1-5.85,1.62c-3.24,0-4.86-2.16-4.86-6.66,0-3.33,1.17-8.19,3.42-14-4.86,11-12.78,20-18.36,20.88-4.41-.18-7.47-4.68-7.47-10.89,0-13.41,13-31.77,22.68-32.31,2.43.63,6.48,4.86,6.75,7.11-9.63,1.53-21.42,17.46-21.42,28.53,0,1.26.45,1.89,1.26,2.16,3.51-.72,7.83-5.76,14.31-16.56,2.52-4.23,6.12-11,8.73-16.38C1010.49,122.54,1014.72,124.52,1014.63,125.69Z"/><path class="cls-4" d="M1045.4,133.43c-.72-.09-1.08-.54-1.16-1.35s1.43-3.42,1.43-4.86c0-1.71-.89-3-2.16-3-4.77,0-7.37,6.21-7.37,17.73,0,.72,0,.9.09,1.08,2.51-.09,4.4-.18,6.3-.18a1.51,1.51,0,0,1,.08.72,2,2,0,0,1-.36,1.17c-5.58,1.26-6,1.44-6,2.79,0,.9.09,1.8.09,3.24,0,10-5.85,16.47-15.48,17.46-3.42-.27-7.56-3.69-8.55-7,0-9.18,8.1-16.92,18.53-17.64,0-6.12-2.79-11.34-2.79-16.38,0-6.39,5.58-13.32,11.88-14.67,2.7.72,9.63,7.74,10.35,10.53C1050,127.67,1047.29,133.43,1045.4,133.43Zm-14.21,14.85c-4.68.63-12.42,8.46-12.42,12.6a3.8,3.8,0,0,0,1.8,3.24C1026.33,161.78,1031.19,154.49,1031.19,148.28Z"/><path class="cls-4" d="M1081.67,84c3.33.27,8.46,5.85,8.46,9.18-10.8,8.64-22.85,28.08-28.52,45.72,7.73-13.32,17-21.78,24.2-22a9.08,9.08,0,0,1,4,7.65c0,7.65-6.75,16.29-13.86,17.73,2.43,8.28,7.29,18,15.66,22.77-1.08,2.43-5.22,4.86-9.18,4.86-3.24,0-6.12-3.42-8.37-9.45a118.54,118.54,0,0,1-4.86-19.53,59.14,59.14,0,0,0,7.11-6c5.22-5,7.92-9.45,7.92-13.23,0-.36-.45-.72-1-.72-4.77.18-13.5,9.27-20.42,21.33a42.72,42.72,0,0,0-5,18.36,6.87,6.87,0,0,0,.28,2.07c-1.9-.18-3-.63-3.42-1.44a10.58,10.58,0,0,0-2.25-2.88c-1.08-.81-1.9-3.69-1.9-7.92C1050.53,137.39,1072.58,90.32,1081.67,84Z"/><path class="cls-4" d="M1132.43,125.69c-4.86,10.08-8.19,20.7-8.19,26.82,0,3.33.72,5.67,2.34,6.57a12.93,12.93,0,0,1-5.85,1.62c-3.24,0-4.86-2.16-4.86-6.66,0-3.33,1.17-8.19,3.42-14-4.86,11-12.77,20-18.35,20.88-4.41-.18-7.47-4.68-7.47-10.89,0-13.41,13-31.77,22.67-32.31,2.43.63,6.48,4.86,6.75,7.11-9.63,1.53-21.41,17.46-21.41,28.53,0,1.26.45,1.89,1.26,2.16,3.5-.72,7.83-5.76,14.3-16.56,2.52-4.23,6.12-11,8.73-16.38C1128.29,122.54,1132.52,124.52,1132.43,125.69Z"/></g></g></svg>